<?xml version="1.0" encoding="utf-8"?>
<!-- Generator: Adobe Illustrator 25.2.3, SVG Export Plug-In . SVG Version: 6.00 Build 0)  -->
<svg version="1.1" id="Layer_1" xmlns="http://www.w3.org/2000/svg" xmlns:xlink="http://www.w3.org/1999/xlink" x="0px" y="0px"
	 viewBox="0 0 1003 1547.3" style="enable-background:new 0 0 1003 1547.3;" xml:space="preserve">
<style type="text/css">
	.st0{fill:url(#SVGID_1_);}
	.st1{opacity:0.7;fill:#FFFFFF;enable-background:new    ;}
	.st2{display:none;}
	.st3{fill:#FDDDD7;}
	.st4{font-family:'ArialMT';}
	.st5{font-size:12px;}
	.st6{fill:#DDA28F;}
	.st7{fill:#FBC0AD;}
	.st8{fill:#E5D8CF;}
	.st9{fill:#D8DDCC;}
	.st10{fill:#A5BB94;}
	.st11{fill:#C1CFB7;}
	.st12{fill:#FFE4AF;}
	.st13{fill:#FFECCD;}
</style>
<g id="ART">
	<g>
		
			<linearGradient id="SVGID_1_" gradientUnits="userSpaceOnUse" x1="394.6" y1="784.5" x2="394.6" y2="791.3445" gradientTransform="matrix(1 0 0 1 0 756)">
			<stop  offset="0" style="stop-color:#FFFFFF;stop-opacity:0"/>
			<stop  offset="0.9" style="stop-color:#FFFFFF"/>
		</linearGradient>
		<rect x="-7" y="1540.5" class="st0" width="803.2" height="6.8"/>
	</g>
	<g id="fade">
		<rect x="254.7" y="211.8" class="st1" width="97.5" height="336.9"/>
		<rect x="248.1" y="6" class="st1" width="750.6" height="52.5"/>
		<polygon class="st1" points="804.5,549.6 785.4,549.6 785.4,980.3 678.3,980.3 678.3,838.7 584.3,838.7 584.3,1062 490.7,1062 
			490.7,1219.4 396.8,1219.4 396.8,1536.9 299.1,1536.9 299.1,1483.8 202,1483.8 202,825.7 107.8,825.7 107.8,771.3 3.6,771.3 
			3.6,825.7 3.6,830.1 3.6,1547.6 804.4,1547.1 804.4,1302.8 804.4,1219.4 804.4,1082.9 804.4,1062 804.4,1019.2 804.5,1019.2 		"/>
		<polygon class="st1" points="995.4,6.2 995.4,211.8 898.6,211.8 898.6,546.3 808.2,546.3 808.2,832.2 898.6,832.2 908.3,832.2 
			995.4,832.2 995.4,1068.8 1024.4,1068.8 1024.4,6.2 		"/>
	</g>
</g>
<g id="highlights" class="st2">
</g>
<g id="Sourcingerrors">
	<rect id="SE-2" x="202" y="1454.7" class="st3" width="96.7" height="30"/>
	<rect id="SE-1_1_" x="203.5" y="1019" class="st3" width="94.1" height="30"/>
	<text transform="matrix(1 0 0 1 202 1460.7)" class="st4 st5">14</text>
	<text transform="matrix(1 0 0 1 203.5 1025)" class="st4 st5">13</text>
</g>
<g id="Lackofinformationunderreporting">
	<rect id="LI-2" x="2.2" y="687.6" class="st6" width="107.2" height="17.6"/>
	<rect id="LI-8" x="296.4" y="969.7" class="st6" width="96.2" height="50.5"/>
	<text transform="matrix(1 0 0 1 10 690.6)" class="st4 st5">10</text>
	<text transform="matrix(1 0 0 1 300 975.7)" class="st4 st5">11</text>
</g>
<g id="Inaccuracymisrepresentation">
	<rect id="IM-5" x="2.2" y="706.5" class="st7" width="107.2" height="25.9"/>
	<text transform="matrix(1 0 0 1 10 724.5)" class="st4 st5">12</text>
</g>
<g id="Storyframingfocusreporterbias">
	<rect id="SF-2" x="812.8" y="974.7" class="st8" width="92.4" height="10.3"/>
	<rect id="SF-1" x="812.8" y="941.9" class="st8" width="92.4" height="32"/>
	<text transform="matrix(1 0 0 1 812.8 980.7)" class="st4 st5">15</text>
	<text transform="matrix(1 0 0 1 812.8 947.9)" class="st4 st5">16</text>
</g>
<g id="Racistlanguage">
	<rect id="RL-1_1_" x="350.7" y="208" class="st9" width="545.2" height="25.2"/>
	<rect id="RL-2" x="812.8" y="906" class="st9" width="92.4" height="15.6"/>
	<text transform="matrix(1 0 0 1 330 221)" class="st4 st5">1</text>
	<text transform="matrix(1 0 0 1 805 912)" class="st4 st5">2</text>
</g>
<g id="Offensivelanguage">
	<rect id="OL-2" x="297.6" y="1251.3" class="st10" width="97.1" height="11.1"/>
	<rect id="OL-1" x="676.7" y="562.2" class="st10" width="128.8" height="61.3"/>
	<text transform="matrix(1 0 0 1 297.6 1257.3)" class="st4 st5">8</text>
	<text transform="matrix(1 0 0 1 651 576)" class="st4 st5">7</text>
</g>
<g id="Inaccuratelanguage">
	<rect id="IL-1" x="812.4" y="832.2" class="st11" width="193.8" height="46.9"/>
	<rect id="IL-4" x="905.3" y="947.5" class="st11" width="101" height="16.9"/>
	<rect id="IL-2" x="812.4" y="888.8" class="st11" width="91.7" height="12.8"/>
	<text transform="matrix(1 0 0 1 810 841)" class="st4 st5">4</text>
	<text transform="matrix(1 0 0 1 905.3 953.5)" class="st4 st5">6</text>
	<text transform="matrix(1 0 0 1 812.4 894.8)" class="st4 st5">5</text>
</g>
<g id="Photoselection">
	<rect id="PS-1" x="109.5" y="588" class="st12" width="281.7" height="236.1"/>
	<text transform="matrix(1 0 0 1 120 606)" class="st4 st5">9</text>
	<rect id="PS-1_1_" x="392" y="588" class="st12" width="281.7" height="245"/>
	<rect id="PS-1_2_" x="392" y="835" class="st12" width="195" height="230"/>
</g>
<g id="Designlayout">
	<rect id="DL-1" x="354" y="234.5" class="st13" width="541.9" height="308.5"/>
	<text transform="matrix(1 0 0 1 364 251)" class="st4 st5">3</text>
</g>
</svg>
