<?xml version="1.0" encoding="utf-8"?>
<!-- Generator: Adobe Illustrator 25.2.3, SVG Export Plug-In . SVG Version: 6.00 Build 0)  -->
<svg version="1.1" xmlns="http://www.w3.org/2000/svg" xmlns:xlink="http://www.w3.org/1999/xlink" x="0px" y="0px"
	 viewBox="0 0 1003 1547.3" style="enable-background:new 0 0 1003 1547.3;" xml:space="preserve">
<style type="text/css">
	.B_x002F_W_x0020_Water_x0020_25k{fill:#BFBFBF;}
	.st0{fill:url(#SVGID_3_);}
	.st1{fill:url(#SVGID_4_);}
	.st2{fill:url(#SVGID_8_);}
	.st3{opacity:0.7;fill:#FFFFFF;}
	.st4{display:none;}
	.st5{fill:#FDDDD7;}
	.st6{fill:#DDA28F;}
	.st7{fill:#FBC0AD;}
	.st8{fill:#E5D8CF;}
	.st9{fill:#D8DDCC;}
	.st10{fill:#A5BB94;}
	.st11{fill:#C1CFB7;}
	.st12{fill:#FFE4AF;}
	.st13{fill:#FFECCD;}

</style>
<g id="ART">
	<g>
		<g>
			<g>
				<defs>
					<rect id="SVGID_1_" x="241.1" y="6.2" width="770.8" height="1062.6"/>
				</defs>
				<clipPath id="SVGID_2_">
					<use xlink:href="#SVGID_1_"  style="overflow:visible;"/>
				</clipPath>
				<linearGradient id="SVGID_7_" gradientUnits="userSpaceOnUse" x1="403.8195" y1="1547.7158" x2="403.8195" y2="549.2545">
					<stop  offset="0" style="stop-color:#BCBEC0;stop-opacity:0"/>
					<stop  offset="0.2" style="stop-color:#000000;stop-opacity:0.9689"/>
					<stop  offset="1" style="stop-color:#000000"/>
				</linearGradient>
				<use xlink:href="#SVGID_5_"  style="overflow:visible;fill:none;stroke:url(#SVGID_7_);stroke-width:0.75;"/>
			</g>
		</g>
		<linearGradient id="SVGID_8_" gradientUnits="userSpaceOnUse" x1="394.6382" y1="1540.4963" x2="394.6382" y2="1547.3408">
			<stop  offset="0" style="stop-color:#FFFFFF;stop-opacity:0"/>
			<stop  offset="0.9" style="stop-color:#FFFFFF"/>
		</linearGradient>
		<rect x="-7" y="1540.5" class="st2" width="803.2" height="6.8"/>
	</g>
	<g id="fade">
		<rect x="254.7" y="211.8" class="st3" width="97.5" height="336.9"/>
		<rect x="248.1" y="6" class="st3" width="750.6" height="52.5"/>
		<polygon class="st3" points="804.5,549.6 785.4,549.6 785.4,980.3 678.3,980.3 678.3,838.7 584.3,838.7 584.3,1062 490.7,1062
			490.7,1219.4 396.8,1219.4 396.8,1536.9 299.1,1536.9 299.1,1483.8 202,1483.8 202,825.7 107.8,825.7 107.8,771.3 3.6,771.3
			3.6,825.7 3.6,830.1 3.6,1547.6 804.4,1547.1 804.4,1302.8 804.4,1219.4 804.4,1082.9 804.4,1062 804.4,1019.2 804.5,1019.2 		"/>
		<polygon class="st3" points="995.4,6.2 995.4,211.8 898.6,211.8 898.6,546.3 808.2,546.3 808.2,832.2 898.6,832.2 908.3,832.2
			995.4,832.2 995.4,1068.8 1024.4,1068.8 1024.4,6.2 		"/>
	</g>
</g>
<g id="highlights" class="st4">
</g>
<g id="Sourcingerrors">
	<rect id="SE-2" x="202" y="1454.7" class="st5" width="96.7" height="30"/>
	<rect id="SE-1_1_" x="203.5" y="1019" class="st5" width="94.1" height="30"/>
	<text x="202" y="1454.7" dy="0.5em">6</text>
	<text x="203.5" y="1019" dy="0.5em">5</text>
</g>
<g id="Lackofinformationunderreporting">
	<rect id="LI-2" x="2.2" y="687.6" class="st6" width="107.2" height="17.6"/>
	<rect id="LI-8" x="296.4" y="969.7" class="st6" width="96.2" height="50.5"/>
	<text x="10" y="687.6" dy="0.5em">2</text>
	<text x="300" y="969.7" dy="0.5em">3</text>
</g>
<g id="Inaccuracymisrepresentation">
	<rect id="IM-5" x="2.2" y="706.5" class="st7" width="107.2" height="25.9"/>
	<text x="10" y="706.5" dy="0.5em">4</text>
</g>
<g id="Storyframingfocusreporterbias">
	<rect id="SF-2" x="812.8" y="974.7" class="st8" width="92.4" height="10.3"/>
	<rect id="SF-1" x="812.8" y="941.9" class="st8" width="92.4" height="32"/>
	<text x="812.8" y="974.7" dy="0.5em">15</text>
	<text x="812.8" y="941.9" dy="0.5em">16</text>
</g>
<g id="Racistlanguage">
	<rect id="RL-1_1_" x="350.7" y="208" class="st9" width="545.2" height="25.2"/>
	<rect id="RL-2" x="812.8" y="906" class="st9" width="92.4" height="15.6"/>
	<text x="330" y="215" dy="0.5em">8</text>
	<text x="805" y="906" dy="0.5em">9</text>
</g>
<g id="Offensivelanguage">
	<rect id="OL-2" x="297.6" y="1251.3" class="st10" width="97.1" height="11.1"/>
	<rect id="OL-1" x="676.7" y="562.2" class="st10" width="128.8" height="61.3"/>
	<text x="297.6" y="1251.3" dy="0.5em">13</text>
	<text x="645" y="570" dy="0.5em">14</text>
</g>
<g id="Inaccuratelanguage">
	<rect id="IL-1" x="812.4" y="832.2" class="st11" width="193.8" height="46.9"/>
	<rect id="IL-4" x="905.3" y="947.5" class="st11" width="101" height="16.9"/>
	<rect id="IL-2" x="812.4" y="888.8" class="st11" width="91.7" height="12.8"/>
	<text x="805" y="835" dy="0.5em">10</text>
	<text x="905.3" y="947.5" dy="0.5em">11</text>
	<text x="812.4" y="888.8" dy="0.5em">12</text>
</g>
<g id="Photoselection">
	<rect id="PS-1" x="109.5" y="588" class="st12" width="281.7" height="236.1"/>
	<text x="120" y="600" dy="0.5em">1</text>
	<rect id="PS-1" x="392" y="588" class="st12" width="281.7" height="245"/>
	<rect id="PS-1" x="392" y="835" class="st12" width="195" height="230"/>
</g>
<g id="Designlayout">
	<rect id="DL-1" x="354" y="234.5" class="st13" width="541.9" height="308.5"/>
	<text x="364" y="245" dy="0.5em">7</text>
</g>
</svg>
