<svg id="Layer_1_Tears" data-name="Layer 1" xmlns="http://www.w3.org/2000/svg" viewBox="0 0 194.3 1462.70007">
  <defs>
    <style>
      #Layer_1_Tears .cls-1 {
        fill: #fdddd7;
      }

      #Layer_1_Tears .cls-2 {
        fill: #dda28f;
      }

      #Layer_1_Tears .cls-3 {
        fill: #fbc0ad;
      }

      #Layer_1_Tears .cls-4 {
        fill: #e5d8cf;
      }

      #Layer_1_Tears .cls-5 {
        fill: #a5bb94;
      }

      #Layer_1_Tears .cls-6 {
        fill: #c1cfb7;
      }

      #Layer_1_Tears .cls-7 {
        fill: #ffeccd;
      }

      #Layer_1_Tears .cls-8 {
        fill: #d8ddcc;
      }

      #Layer_1_Tears .cls-9 {
        fill: red;
        fill-opacity: 0.4;
      }
    </style>
  </defs>
  <g id="sourcingErrors">
    <rect id="SE-2" class="cls-1" x="2" y="1117" width="95.3" height="29.90002"/>
    <rect id="SE-1" class="cls-1" x="2.2" y="702" width="93.8" height="23"/>
  </g>
  <g id="lackInformation">
    <rect id="LI-8" class="cls-2" x="95.8" y="647" width="94.7" height="24"/>
    <rect id="LI-3" class="cls-2" x="2" y="642" width="93.8" height="11.59998"/>
    <rect id="LI-4" class="cls-2" x="2.2" y="810" width="94.69999" height="15.79999"/>
    <rect id="LI-5" class="cls-2" x="2" y="909" width="94.7" height="21.59998"/>
    <rect id="LI-6" class="cls-2" x="2" y="932.5" width="94.7" height="15.59998"/>
    <rect id="LI-7" class="cls-2" x="2" y="949" width="94.7" height="15.5"/>
    <rect id="LI-9" class="cls-2" x="97.3" y="1146.5" width="97" height="10.90002"/>
    <rect id="LI-1" class="cls-2" x="92.9" y="129" width="97" height="15"/>
  </g>
  <g id="inaccuracyMisrepresentation">
    <rect id="IM-2" class="cls-3" x="1.6" y="163.5" width="91.3" height="10.3"/>
    <rect id="IM-3" class="cls-3" x="92.9" y="102" width="91.3" height="6"/>
    <rect id="IM-3" class="cls-3" x="92.9" y="108" width="10" height="5"/>
    <rect id="IM-4" class="cls-3" x="105" y="108.2" width="79" height="5"/>
    <rect id="IM-4" class="cls-3" x="92.9" y="113" width="55" height="5"/>
    <rect id="IM-6" class="cls-3" x="0.1" y="214" width="192.60001" height="10.7"/>
    <rect id="IM-7" class="cls-3" x="9.3" y="372.5" width="143.80001" height="4.20001"/>
  </g>
  <g id="storyFraming">
    <rect id="SF-5" class="cls-4" x="95.8" y="994.5" width="96" height="10.89996"/>
    <rect id="SF-4" class="cls-4" x="96.9" y="1125" width="96.80001" height="22"/>
    <rect id="SF-3" class="cls-4" x="94.9" y="574.5" width="95.7" height="17.5"/>
    <rect id="SF-2" class="cls-4" x="1" y="138" width="92.4" height="10.3"/>
    <rect id="SF-1" class="cls-4" x="1" y="107.5" width="92.4" height="11"/>
  </g>
  <g id="offensiveLanguage">
    <rect id="OL-2" class="cls-5" x="95.8" y="921" width="95" height="5.5"/>
    <rect id="OL-3" class="cls-5" x="132.2" y="942" width="59" height="5.5"/>
  </g>
  <g id="inaccurateLanguage">
    <rect id="IL-8" class="cls-6" x="1.1" y="885.5" width="94.7" height="21.59998"/>
    <rect id="IL-7" class="cls-6" x="2" y="577" width="93" height="16.79999"/>
    <rect id="IL-9" class="cls-6" x="8.9" y="537.5" width="160" height="5"/>
    <rect id="IL-5" class="cls-6" x="92.9" y="169.5" width="98" height="21.39999"/>
    <rect id="IL-1" class="cls-6" x="1" y="0" width="190" height="46.9"/>
    <rect id="IL-4" class="cls-6" x="149" y="112.5" width="35" height="5"/>
    <rect id="IL-4" class="cls-6" x="92.9" y="117.5" width="91" height="5"/>
    <rect id="IL-4" class="cls-6" x="92.9" y="122.5" width="45" height="5"/>
    <rect id="IL-2" class="cls-6" x="1" y="55" width="91" height="12"/>
    <rect id="IL-3" class="cls-6" x="1" y="97" width="91" height="9.9"/>
  </g>
  <g id="photoSelection">
    <rect id="PS-3" class="cls-7" x="2.6" y="384" width="188.4" height="155"/>
    <rect id="PS-2" class="cls-7" x="1.9" y="228" width="188.19999" height="144"/>
    <rect id="PS-4" class="cls-7" x="3.2" y="1210" width="185.3" height="220.90002"/>
  </g>
  <g id="racistLangauge">
    <rect id="RL-2" class="cls-8" x="1" y="71.5" width="92.4" height="15.6"/>
  </g>
</svg>
